HIERARCHY
ROOT Hips
{
	OFFSET	0.00	0.00	0.00
	CHANNELS 6 Xposition Yposition Zposition Zrotation Xrotation Yrotation
	JOINT LeftUpLeg
	{
		OFFSET	 0.126116	-0.065224	 0.014019
		CHANNELS 3 Zrotation Xrotation Yrotation
		JOINT LeftLeg
		{
			OFFSET	 0.000000	 0.569914	 0.000000
			CHANNELS 3 Zrotation Xrotation Yrotation
			JOINT LeftFoot
			{
				OFFSET	 0.000000	 0.544423	 0.000000
				CHANNELS 3 Zrotation Xrotation Yrotation
				JOINT LeftToeBase
				{
					OFFSET	 0.000000	 0.207117	 0.000000
					CHANNELS 3 Zrotation Xrotation Yrotation
					End Site
					{
						OFFSET	 0.000000	 0.207117	 0.000000
					}
				}
			}
		}
	}
	JOINT RightUpLeg
	{
		OFFSET	-0.124023	-0.065224	 0.008373
		CHANNELS 3 Zrotation Xrotation Yrotation
		JOINT RightLeg
		{
			OFFSET	 0.000000	 0.570047	 0.000000
			CHANNELS 3 Zrotation Xrotation Yrotation
			JOINT RightFoot
			{
				OFFSET	 0.000000	 0.544354	 0.000000
				CHANNELS 3 Zrotation Xrotation Yrotation
				JOINT RightToeBase
				{
					OFFSET	 0.000000	 0.207540	 0.000000
					CHANNELS 3 Zrotation Xrotation Yrotation
					End Site
					{
						OFFSET	 0.000000	 0.207540	 0.000000
					}
				}
			}
		}
	}
	JOINT Spine
	{
		OFFSET	 0.000184	 0.117403	 0.007763
		CHANNELS 3 Zrotation Xrotation Yrotation
		JOINT Spine1
		{
			OFFSET	 0.000000	 0.137269	 0.000000
			CHANNELS 3 Zrotation Xrotation Yrotation
			JOINT Spine2
			{
				OFFSET	 0.000000	 0.156879	 0.000000
				CHANNELS 3 Zrotation Xrotation Yrotation
				JOINT LeftShoulder
				{
					OFFSET	 0.080501	 0.160143	 0.002496
					CHANNELS 3 Zrotation Xrotation Yrotation
					JOINT LeftArm
					{
						OFFSET	 0.000000	 0.164363	 0.000000
						CHANNELS 3 Zrotation Xrotation Yrotation
						JOINT LeftForeArm
						{
							OFFSET	 0.000000	 0.364576	 0.000000
							CHANNELS 3 Zrotation Xrotation Yrotation
							JOINT LeftHand
							{
								OFFSET	 0.000000	 0.360812	 0.000000
								CHANNELS 3 Zrotation Xrotation Yrotation
								JOINT LeftHandIndex1
								{
									OFFSET	 0.000000	 0.086006	 0.000000
									CHANNELS 3 Zrotation Xrotation Yrotation
									JOINT LeftHandIndex2
									{
										OFFSET	 0.000000	 0.047237	 0.000000
										CHANNELS 3 Zrotation Xrotation Yrotation
										JOINT LeftHandIndex3
										{
											OFFSET	-0.004284	 0.038165	 0.000551
											CHANNELS 3 Zrotation Xrotation Yrotation
											End Site
											{
												OFFSET	-0.004284	 0.038165	 0.000551
											}
										}
									}
								}
							}
						}
					}
				}
				JOINT Neck
				{
					OFFSET	 0.000000	 0.176489	 0.000000
					CHANNELS 3 Zrotation Xrotation Yrotation
					JOINT Head
					{
						OFFSET	 0.000000	 0.077941	 0.001747
						CHANNELS 3 Zrotation Xrotation Yrotation
						End Site
						{
							OFFSET	 0.000000	 0.077941	 0.001747
						}
					}
				}
				JOINT RightShoulder
				{
					OFFSET	-0.080363	 0.159706	-0.000306
					CHANNELS 3 Zrotation Xrotation Yrotation
					JOINT RightArm
					{
						OFFSET	 0.000000	 0.164196	 0.000000
						CHANNELS 3 Zrotation Xrotation Yrotation
						JOINT RightForeArm
						{
							OFFSET	 0.000000	 0.365611	 0.000000
							CHANNELS 3 Zrotation Xrotation Yrotation
							JOINT RightHand
							{
								OFFSET	 0.000000	 0.360648	 0.000000
								CHANNELS 3 Zrotation Xrotation Yrotation
								JOINT RightHandIndex1
								{
									OFFSET	 0.000000	 0.069977	 0.000000
									CHANNELS 3 Zrotation Xrotation Yrotation
									JOINT RightHandIndex2
									{
										OFFSET	 0.000000	 0.052305	 0.000000
										CHANNELS 3 Zrotation Xrotation Yrotation
										JOINT RightHandIndex3
										{
											OFFSET	 0.009002	 0.042196	 0.000782
											CHANNELS 3 Zrotation Xrotation Yrotation
											End Site
											{
												OFFSET	 0.009002	 0.042196	 0.000782
											}
										}
									}
								}
							}
						}
					}
				}
			}
		}
	}
}
MOTION
Frames:    7
Frame Time: 0.03333334
 0.436634	 1.273929	 0.406712	 0.562767	-2.433601	-177.254000	-179.218200	 6.915060	-11.922380	 3.484739	-12.887440	 5.980566	 5.366421	 69.812510	-1.593108	 1.292262	 28.425850	-2.713146	 176.699100	 7.719590	 13.548110	-2.060553	-10.595710	 0.845982	 0.643544	 66.210850	-5.829927	-1.288183	 28.361890	 2.710176	 0.279531	 6.515035	 1.093286	-0.346444	-6.956280	 0.399112	 0.877417	 8.173509	-1.913151	-117.459200	-0.779908	 89.958450	 11.570920	-0.448967	-7.093789	 4.931494	-0.400768	 34.722840	 7.450867	-5.833363	-0.531709	-6.580301	 5.266122	 0.000000	 0.000000	 0.000000	 0.000000	 0.000000	 0.000000	 0.000000	 4.795040	 27.116160	 1.713048	-4.062601	-16.192380	-0.407518	 116.287700	-0.440198	-90.569130	-11.505360	-1.768986	 20.625420	-5.048002	 0.120256	-57.199100	-4.656976	-5.500991	 14.521500	 15.208500	 5.323790	 0.000000	 0.000000	 0.000000	 0.000000	 0.000000	 0.000000	 0.000000
 0.436864	 1.274177	 0.407384	 0.622016	-2.762240	-177.254600	-179.161500	 7.277853	-11.917740	 3.471784	-12.841200	 5.980924	 5.381367	 69.730530	-1.609358	 1.292262	 28.425850	-2.713146	 176.733800	 8.087967	 13.545820	-2.053419	-10.559920	 0.842577	 0.583002	 66.136800	-5.775302	-1.288183	 28.361890	 2.710176	 0.298068	 6.425903	 0.816254	-0.373932	-7.696309	 0.254456	 0.879496	 9.210668	-1.495068	-117.473300	-0.784173	 89.956550	 11.754180	 1.053987	-6.974342	 4.864026	-0.395367	 34.683950	 5.672844	-6.574820	-0.233214	-6.580301	 5.266122	 0.000000	 0.000000	 0.000000	 0.000000	 0.000000	 0.000000	 0.000000	 4.804792	 27.146900	 1.704958	-4.063522	-16.058520	-0.301000	 116.309900	-0.446322	-90.567020	-11.680100	-0.150734	 20.446050	-4.973847	 0.118544	-57.170680	-4.455978	-6.807558	 13.452170	 15.208500	 5.323790	 0.000000	 0.000000	 0.000000	 0.000000	 0.000000	 0.000000	 0.000000
 0.437228	 1.275199	 0.408845	 0.630858	-3.263776	-177.246400	-179.150300	 7.491930	-11.888290	 3.251291	-12.051110	 5.978389	 5.536420	 69.195050	-1.650923	 1.292262	 28.425850	-2.713146	 176.725600	 8.339830	 13.554800	-1.909860	-9.836876	 0.802232	 0.270074	 65.660510	-5.584990	-1.288183	 28.361890	 2.710176	 0.158084	 6.451764	-0.162200	-0.264596	-8.973672	-0.279586	 0.714435	 10.821020	 0.068645	-117.668100	-0.843570	 89.929950	 12.103690	 2.088198	-6.350574	 4.780376	-0.388527	 34.155180	 2.260491	-5.842010	-0.741414	-6.580301	 5.266122	 0.000000	 0.000000	 0.000000	 0.000000	 0.000000	 0.000000	 0.000000	 4.940842	 27.573140	 1.591915	-4.063970	-16.077940	 0.124908	 116.617100	-0.531076	-90.537620	-11.987890	 0.916800	 20.087080	-4.880241	 0.116283	-56.784680	-7.206836	-8.444905	 10.232210	 15.208500	 5.323790	 0.000000	 0.000000	 0.000000	 0.000000	 0.000000	 0.000000	 0.000000
 0.437145	 1.274606	 0.408206	 0.640800	-3.135668	-177.261000	-179.140000	 7.575950	-11.909620	 3.394797	-12.565870	 5.974996	 5.430482	 69.518230	-1.634012	 1.292262	 28.425850	-2.713146	 176.727200	 8.462032	 13.550760	-2.027847	-10.431310	 0.831120	 0.502951	 66.007110	-5.721162	-1.288183	 28.361890	 2.710176	 0.094838	 6.429570	-0.996217	-0.014938	-8.734026	-0.654248	 0.475018	 10.723690	 1.285764	-117.520700	-0.798671	 89.950070	 12.128060	 2.857787	-6.577369	 4.790629	-0.389404	 34.553550	-1.099041	-5.673731	-2.510048	-6.580301	 5.266122	 0.000000	 0.000000	 0.000000	 0.000000	 0.000000	 0.000000	 0.000000	 4.837794	 27.250750	 1.677569	-4.036290	-15.851670	 0.421389	 116.384700	-0.467000	-90.559900	-12.032550	 1.720902	 20.129920	-4.891957	 0.116610	-57.074990	-8.589295	-10.317660	 9.382632	 15.208500	 5.323790	 0.000000	 0.000000	 0.000000	 0.000000	 0.000000	 0.000000	 0.000000
 0.437230	 1.274808	 0.410099	 0.657181	-3.516822	-177.223100	-179.137400	 8.039793	-11.846370	 3.376809	-12.501460	 6.065292	 5.774159	 69.348600	-1.887067	 1.292262	 28.425850	-2.713146	 176.724700	 8.847473	 13.565130	-1.989043	-10.236060	 0.700749	 0.043650	 65.810630	-5.362956	-1.288183	 28.361890	 2.710176	 0.037309	 6.682103	-1.434814	 0.084708	-9.372890	-0.875890	 0.389220	 11.606050	 1.888498	-117.930000	-0.923264	 89.893900	 12.754480	 3.211536	-5.517210	 4.810373	-0.390925	 33.463780	-1.511449	-4.932413	-2.109850	-6.580301	 5.266122	 0.000000	 0.000000	 0.000000	 0.000000	 0.000000	 0.000000	 0.000000	 5.126173	 28.146050	 1.437364	-4.060357	-16.279270	 0.628665	 117.030200	-0.644781	-90.497380	-12.677380	 1.789346	 19.701350	-4.908728	 0.116986	-56.295300	-10.380030	-10.013710	 6.838768	 15.208500	 5.323790	 0.000000	 0.000000	 0.000000	 0.000000	 0.000000	 0.000000	 0.000000
 0.437231	 1.274105	 0.423409	 0.818961	-5.612211	-177.018300	-179.089100	 11.496900	-11.492790	 3.719275	-13.721810	 6.627129	 7.595581	 69.117980	-3.370830	 1.292262	 28.425850	-2.713146	 176.707400	 11.835140	 13.624880	-2.081888	-10.702900	-0.003274	-2.093412	 65.391400	-3.593851	-1.288183	 28.361890	 2.710176	-0.076535	 7.895339	-2.636806	 0.268698	-10.870800	-1.517851	 0.242650	 15.048780	 3.459447	-120.081700	-1.570734	 89.584360	 17.441070	 8.464128	-0.107586	 4.926607	-0.400391	 28.464300	-3.005462	-4.735934	-0.892071	-6.580301	 5.266122	 0.000000	 0.000000	 0.000000	 0.000000	 0.000000	 0.000000	 0.000000	 6.761150	 32.834100	 0.048578	-4.196403	-18.611280	 1.325140	 120.425400	-1.566546	-90.136200	-17.512600	 5.517865	 17.754990	-5.009757	 0.119346	-53.343540	-13.134290	-8.576374	-2.967401	 15.208500	 5.323790	 0.000000	 0.000000	 0.000000	 0.000000	 0.000000	 0.000000	 0.000000
 0.438760	 1.272310	 0.455760	 0.930825	-11.269020	-176.461600	-179.562200	 19.877310	-10.647800	 4.070313	-14.959230	 8.687526	 13.481820	 67.268940	-8.436794	 1.292262	 28.425850	-2.713146	 176.185800	 19.799120	 14.219810	-2.245450	-11.521650	-1.997175	-7.677076	 63.745770	 1.060302	-1.288183	 28.361890	 2.710176	-0.111214	 9.463282	-3.794564	 0.236887	-11.452470	-2.100823	 0.217437	 18.790230	 4.561668	-123.142700	 0.965810	 90.878340	 26.170610	 19.029390	 4.555015	 4.974581	-0.404307	 21.786290	-1.949080	-6.798561	-2.292230	-6.580301	 5.266122	 0.000000	 0.000000	 0.000000	 0.000000	 0.000000	 0.000000	 0.000000	 9.380008	 37.431380	-2.565472	-4.200072	-22.098190	 1.953516	 125.289400	 0.191975	-91.166020	-26.013730	 14.458240	 15.490860	-5.024082	 0.119802	-48.128970	-14.924990	-5.071911	-13.700700	 15.208500	 5.323790	 0.000000	 0.000000	 0.000000	 0.000000	 0.000000	 0.000000	 0.000000
